<svg width="70" height="24" viewBox="0 0 70 24" fill="none" xmlns="http://www.w3.org/2000/svg">
<rect width="24" height="24" rx="5.33333" fill="white"/>
<path d="M31.3523 17.5V7.31818H34.6385C35.361 7.31818 35.9643 7.45739 36.4482 7.7358C36.9354 8.01089 37.3016 8.38542 37.5469 8.85938C37.7955 9.33333 37.9197 9.86695 37.9197 10.4602C37.9197 11.0535 37.7971 11.5888 37.5518 12.0661C37.3066 12.54 36.942 12.9162 36.4581 13.1946C35.9742 13.4697 35.3726 13.6072 34.6534 13.6072H32.0682V12.772H34.6286C35.1622 12.772 35.6046 12.6726 35.956 12.4737C36.3073 12.2715 36.5691 11.9964 36.7415 11.6484C36.9171 11.3004 37.005 10.9044 37.005 10.4602C37.005 10.0161 36.9171 9.62003 36.7415 9.27202C36.5691 8.92401 36.3056 8.65057 35.951 8.4517C35.5997 8.25284 35.1539 8.15341 34.6136 8.15341H32.282V17.5H31.3523ZM39.0781 17.5H38.1037L41.8075 7.31818H42.8018L46.5057 17.5H45.5312L42.3395 8.52628H42.2699L39.0781 17.5ZM39.7791 13.5973H44.8303V14.4325H39.7791V13.5973ZM49.2276 17.5L46.4386 7.31818H47.3832L49.69 16.0732H49.7695L52.0763 7.31818H53.1502L55.457 16.0732H55.5366L57.8434 7.31818H58.793L56.0039 17.5H55.0096L52.6481 8.86435H52.5835L50.2219 17.5H49.2276ZM68.3422 12.4091C68.3422 13.4697 68.1532 14.3928 67.7754 15.1783C67.3975 15.9605 66.8772 16.567 66.2143 16.9979C65.5547 17.4254 64.7958 17.6392 63.9373 17.6392C63.0789 17.6392 62.3182 17.4254 61.6554 16.9979C60.9958 16.567 60.4771 15.9605 60.0993 15.1783C59.7247 14.3928 59.5375 13.4697 59.5375 12.4091C59.5375 11.3485 59.7247 10.4271 60.0993 9.64489C60.4771 8.85937 60.9975 8.25284 61.6603 7.82528C62.3232 7.39441 63.0822 7.17898 63.9373 7.17898C64.7958 7.17898 65.5547 7.39441 66.2143 7.82528C66.8772 8.25284 67.3975 8.85937 67.7754 9.64489C68.1532 10.4271 68.3422 11.3485 68.3422 12.4091ZM67.4373 12.4091C67.4373 11.4976 67.2849 10.7171 66.9799 10.0675C66.675 9.41454 66.2591 8.91572 65.7321 8.57102C65.2051 8.22633 64.6068 8.05398 63.9373 8.05398C63.2711 8.05398 62.6745 8.22633 62.1475 8.57102C61.6206 8.91572 61.2029 9.41288 60.8947 10.0625C60.5898 10.7121 60.4373 11.4943 60.4373 12.4091C60.4373 13.3205 60.5898 14.1011 60.8947 14.7507C61.1996 15.4003 61.6156 15.8991 62.1426 16.2472C62.6696 16.5919 63.2678 16.7642 63.9373 16.7642C64.6068 16.7642 65.2051 16.5919 65.7321 16.2472C66.2624 15.9025 66.68 15.4053 66.9849 14.7557C67.2898 14.1027 67.4406 13.3205 67.4373 12.4091Z" fill="white"/>
<circle cx="14.3496" cy="14.3506" r="5.65026" stroke="black" stroke-width="0.888889"/>
<circle cx="9.47361" cy="9.47361" r="5.65026" stroke="black" stroke-width="0.888889"/>
</svg>
